<svg width="41" height="35" viewBox="0 0 41 35" fill="none" xmlns="http://www.w3.org/2000/svg">
<path d="M39 18.5C39 13.5935 36.9982 8.88795 33.435 5.41853C29.8718 1.9491 25.0391 3.70431e-07 20 0C14.9609 -3.70431e-07 10.1282 1.9491 6.56497 5.41852C3.00178 8.88795 1 13.5935 1 18.5H2.77146C2.77146 14.051 4.58661 9.78412 7.81758 6.63817C11.0486 3.49222 15.4307 1.72484 20 1.72484C24.5693 1.72484 28.9514 3.49222 32.1824 6.63817C35.4134 9.78413 37.2285 14.051 37.2285 18.5H39Z" fill="#1A1576"/>
<path d="M40.1557 18.5419C40.1557 20.8569 38.279 22.7335 35.9641 22.7335C33.6491 22.7335 31.7725 20.8569 31.7725 18.5419C31.7725 16.2269 33.6491 14.3503 35.9641 14.3503C38.279 14.3503 40.1557 16.2269 40.1557 18.5419Z" fill="#1A1576"/>
<path d="M8.38323 18.5419C8.38323 20.8569 6.50658 22.7335 4.19162 22.7335C1.87665 22.7335 0 20.8569 0 18.5419C0 16.2269 1.87665 14.3503 4.19162 14.3503C6.50658 14.3503 8.38323 16.2269 8.38323 18.5419Z" fill="#1A1576"/>
<path fill-rule="evenodd" clip-rule="evenodd" d="M20.0781 2.61334C28.8517 2.61349 35.9639 9.72643 35.9639 18.5001C35.9638 27.2737 28.8517 34.3857 20.0781 34.3858H7.05664C5.47451 34.3858 4.19144 33.1037 4.19141 31.5215V18.5001C4.19141 9.72634 11.3044 2.61334 20.0781 2.61334ZM16.6445 24.713C16.3346 24.7791 16.1327 25.0865 16.2451 25.3829C16.4803 26.0029 16.8761 26.5538 17.3965 26.9756C18.0663 27.5187 18.9023 27.8157 19.7646 27.8174C20.6268 27.8192 21.4637 27.5255 22.1357 26.9854C22.6578 26.5657 23.0562 26.0165 23.2939 25.3975C23.4076 25.1016 23.2071 24.7931 22.8975 24.7256C22.5879 24.6584 22.2873 24.859 22.1543 25.1465C21.9855 25.5115 21.7344 25.8357 21.417 26.0909C20.9494 26.4667 20.3665 26.6712 19.7666 26.67C19.1668 26.6686 18.5851 26.4618 18.1191 26.084C17.8028 25.8276 17.553 25.5024 17.3857 25.1368C17.2539 24.8486 16.9545 24.6468 16.6445 24.713ZM14.5 12.2305C13.6716 12.2305 13 12.9021 13 13.7305V17.7305C13 18.559 13.6716 19.2305 14.5 19.2305C15.3284 19.2305 16 18.559 16 17.7305V13.7305C16 12.9021 15.3284 12.2305 14.5 12.2305ZM25.5 12.2305C24.6716 12.2305 24 12.9021 24 13.7305V17.7305C24 18.559 24.6716 19.2305 25.5 19.2305C26.3284 19.2305 27 18.559 27 17.7305V13.7305C27 12.9021 26.3284 12.2305 25.5 12.2305Z" fill="#4F46E5"/>
</svg>
